<?xml version="1.0" encoding="utf-8"?>
<!-- Generator: Adobe Illustrator 25.4.1, SVG Export Plug-In . SVG Version: 6.00 Build 0)  -->
<svg version="1.1" id="Layer_1" xmlns="http://www.w3.org/2000/svg" xmlns:xlink="http://www.w3.org/1999/xlink" x="0px" y="0px"
	 viewBox="0 0 700 700" style="enable-background:new 0 0 700 700;" xml:space="preserve">
<g>
	<path d="M588.7,342c-26.6-31.6-122.5-134.7-238.8-134.7c-116.1,0-212,103.1-238.6,134.7c-3.9,4.7-3.9,11.4,0,16.1
		c26.6,31.6,122.5,134.7,238.6,134.7c116.2,0,212.1-103.1,238.8-134.7C592.6,353.4,592.6,346.6,588.7,342 M349.9,442.5
		c-51,0-92.5-41.4-92.5-92.5c0-51.1,41.5-92.5,92.5-92.5c51.1,0,92.6,41.4,92.6,92.5C442.6,401.1,401.1,442.5,349.9,442.5"/>
	<path d="M350,314c-19.9,0-36,16.1-36,36c0,19.9,16.2,36,36,36c19.9,0,36.1-16.1,36.1-36C386.1,330.1,369.9,314,350,314"/>
</g>
</svg>
