<?xml version="1.0" encoding="UTF-8"?>
<svg width="700pt" height="700pt" version="1.1" viewBox="0 0 700 700" xmlns="http://www.w3.org/2000/svg">
 <g>
  <path d="m421.82 380.34c0.011719 35.73-13.23 70.195-37.168 96.723-23.934 26.527-56.863 43.234-92.406 46.883-35.543 3.6484-71.176-6.0156-100-27.125-28.828-21.113-48.797-52.168-56.047-87.156-7.25-34.984-1.2617-71.418 16.805-102.25 18.066-30.824 46.926-53.855 80.996-64.629v-36.801c-41.074 10.25-77.211 34.676-102.04 68.969-24.824 34.293-36.742 76.25-33.652 118.47 3.0898 42.223 20.988 81.996 50.535 112.31 29.551 30.312 68.855 49.219 110.98 53.387 42.129 4.1641 84.375-6.6797 119.29-30.621 34.914-23.941 60.254-59.438 71.551-100.24l-28.879-50.672c0.015626 0.91016 0.027344 1.8359 0.027344 2.7461z"/>
  <path d="m598.25 427.48c-3.5703-5.6367-9.2305-9.6211-15.742-11.082-6.5078-1.4609-13.332-0.27734-18.969 3.293l-30.184 19.117-90.332-158.49h-142.41v-43.223h115.57c8.9297-0.082031 17.148-4.8945 21.59-12.641 4.4453-7.75 4.4453-17.273 0-25.02-4.4414-7.75-12.66-12.562-21.59-12.645h-115.57v-50.004c-0.078125-8.9375-4.8867-17.16-12.637-21.605-7.75-4.4453-17.277-4.4453-25.027 0-7.7539 4.4453-12.562 12.668-12.641 21.605v170.5-0.003907c0 6.1914 2.457 12.125 6.8359 16.5 4.375 4.375 10.309 6.8359 16.496 6.8359h140.16l41.82 73.375 48.031 84.266v0.003906c3.1562 5.5391 8.4414 9.543 14.629 11.086 6.1875 1.5391 12.738 0.48438 18.125-2.9297l54.059-34.234c5.6367-3.5703 9.6211-9.2344 11.082-15.742 1.4609-6.5078 0.27734-13.332-3.293-18.969z"/>
  <path d="m282.46 88.277c11.707 0.003906 22.934-4.6445 31.211-12.922 8.2812-8.2773 12.934-19.504 12.934-31.211 0.003907-11.703-4.6445-22.934-12.922-31.211-8.2773-8.2812-19.504-12.93-31.207-12.934-11.707-0.0039062-22.938 4.6445-31.215 12.922-8.2773 8.2773-12.93 19.504-12.934 31.211 0 11.703 4.6523 22.93 12.926 31.207 8.2773 8.2812 19.5 12.934 31.207 12.938z"/>
 </g>
</svg>
